<mxfile host="app.diagrams.net" agent="Mozilla/5.0 (X11; Linux x86_64) AppleWebKit/537.36 (KHTML, like Gecko) Chrome/129.0.0.0 Safari/537.36" version="24.8.0">
  <diagram name="Page-1" id="D39qcyrGXl3DPmPf156J">
    <mxGraphModel dx="1035" dy="998" grid="0" gridSize="10" guides="1" tooltips="1" connect="1" arrows="1" fold="1" page="0" pageScale="1" pageWidth="827" pageHeight="1169" math="0" shadow="0">
      <root>
        <mxCell id="0" />
        <mxCell id="1" parent="0" />
        <mxCell id="F_s4WLiXZLSX8BtZLZNL-9" style="edgeStyle=orthogonalEdgeStyle;rounded=0;hachureGap=4;orthogonalLoop=1;jettySize=auto;html=1;fontFamily=Architects Daughter;fontSource=https%3A%2F%2Ffonts.googleapis.com%2Fcss%3Ffamily%3DArchitects%2BDaughter;" edge="1" parent="1" source="F_s4WLiXZLSX8BtZLZNL-1" target="F_s4WLiXZLSX8BtZLZNL-10">
          <mxGeometry relative="1" as="geometry">
            <mxPoint x="521" y="167" as="targetPoint" />
          </mxGeometry>
        </mxCell>
        <mxCell id="F_s4WLiXZLSX8BtZLZNL-11" value="&lt;font style=&quot;font-size: 15px;&quot; face=&quot;Times New Roman&quot;&gt;Fetch name,phone,&lt;/font&gt;&lt;div style=&quot;font-size: 15px;&quot;&gt;&lt;font style=&quot;font-size: 15px;&quot; face=&quot;KeWl6q23-m1uf2T4gUEQ&quot;&gt;email,zip,postal&amp;nbsp;&lt;/font&gt;&lt;/div&gt;&lt;div style=&quot;font-size: 15px;&quot;&gt;&lt;font style=&quot;font-size: 15px;&quot; face=&quot;KeWl6q23-m1uf2T4gUEQ&quot;&gt;of respective npi_id&lt;/font&gt;&lt;/div&gt;" style="edgeLabel;html=1;align=center;verticalAlign=middle;resizable=0;points=[];sketch=1;hachureGap=4;jiggle=2;curveFitting=1;fontFamily=Architects Daughter;fontSource=https%3A%2F%2Ffonts.googleapis.com%2Fcss%3Ffamily%3DArchitects%2BDaughter;" vertex="1" connectable="0" parent="F_s4WLiXZLSX8BtZLZNL-9">
          <mxGeometry x="-0.0349" y="1" relative="1" as="geometry">
            <mxPoint as="offset" />
          </mxGeometry>
        </mxCell>
        <mxCell id="F_s4WLiXZLSX8BtZLZNL-17" style="edgeStyle=orthogonalEdgeStyle;rounded=0;hachureGap=4;orthogonalLoop=1;jettySize=auto;html=1;entryX=0.5;entryY=0;entryDx=0;entryDy=0;fontFamily=Architects Daughter;fontSource=https%3A%2F%2Ffonts.googleapis.com%2Fcss%3Ffamily%3DArchitects%2BDaughter;" edge="1" parent="1" source="F_s4WLiXZLSX8BtZLZNL-1" target="F_s4WLiXZLSX8BtZLZNL-16">
          <mxGeometry relative="1" as="geometry" />
        </mxCell>
        <mxCell id="F_s4WLiXZLSX8BtZLZNL-18" value="&lt;font face=&quot;Times New Roman&quot; style=&quot;font-size: 15px;&quot;&gt;send npi datas&amp;nbsp;&lt;/font&gt;&lt;div style=&quot;font-size: 15px;&quot;&gt;&lt;font face=&quot;Times New Roman&quot; style=&quot;font-size: 15px;&quot;&gt;to generate unique&lt;/font&gt;&lt;/div&gt;&lt;div style=&quot;font-size: 15px;&quot;&gt;&lt;font face=&quot;Times New Roman&quot; style=&quot;font-size: 15px;&quot;&gt;ramp id&lt;/font&gt;&lt;/div&gt;" style="edgeLabel;html=1;align=center;verticalAlign=middle;resizable=0;points=[];sketch=1;hachureGap=4;jiggle=2;curveFitting=1;fontFamily=Architects Daughter;fontSource=https%3A%2F%2Ffonts.googleapis.com%2Fcss%3Ffamily%3DArchitects%2BDaughter;" vertex="1" connectable="0" parent="F_s4WLiXZLSX8BtZLZNL-17">
          <mxGeometry x="-0.2152" relative="1" as="geometry">
            <mxPoint y="10" as="offset" />
          </mxGeometry>
        </mxCell>
        <mxCell id="F_s4WLiXZLSX8BtZLZNL-1" value="&lt;font style=&quot;font-size: 17px;&quot; face=&quot;Times New Roman&quot;&gt;fetch npi&lt;/font&gt;&lt;div style=&quot;font-size: 17px;&quot;&gt;&lt;font style=&quot;font-size: 17px;&quot; face=&quot;gCboz8XdYraypCbsUrcV&quot;&gt;related data from our DB&amp;nbsp;&lt;/font&gt;&lt;/div&gt;&lt;div style=&quot;font-size: 17px;&quot;&gt;&lt;font style=&quot;font-size: 17px;&quot; face=&quot;gCboz8XdYraypCbsUrcV&quot;&gt;for that campaign&lt;/font&gt;&lt;/div&gt;" style="whiteSpace=wrap;html=1;aspect=fixed;hachureGap=4;fontFamily=Architects Daughter;fontSource=https%3A%2F%2Ffonts.googleapis.com%2Fcss%3Ffamily%3DArchitects%2BDaughter;" vertex="1" parent="1">
          <mxGeometry x="257" y="115" width="104" height="104" as="geometry" />
        </mxCell>
        <mxCell id="F_s4WLiXZLSX8BtZLZNL-4" style="edgeStyle=orthogonalEdgeStyle;rounded=0;sketch=1;hachureGap=4;jiggle=2;curveFitting=1;orthogonalLoop=1;jettySize=auto;html=1;exitX=0.5;exitY=1;exitDx=0;exitDy=0;fontFamily=Architects Daughter;fontSource=https%3A%2F%2Ffonts.googleapis.com%2Fcss%3Ffamily%3DArchitects%2BDaughter;" edge="1" parent="1">
          <mxGeometry relative="1" as="geometry">
            <mxPoint x="316" y="41" as="sourcePoint" />
            <mxPoint x="316" y="41" as="targetPoint" />
          </mxGeometry>
        </mxCell>
        <mxCell id="F_s4WLiXZLSX8BtZLZNL-5" value="&lt;font style=&quot;font-size: 19px;&quot; face=&quot;Times New Roman&quot;&gt;cllient&lt;/font&gt;" style="rounded=0;whiteSpace=wrap;html=1;hachureGap=4;fontFamily=Architects Daughter;fontSource=https%3A%2F%2Ffonts.googleapis.com%2Fcss%3Ffamily%3DArchitects%2BDaughter;" vertex="1" parent="1">
          <mxGeometry x="241" y="-19" width="120" height="60" as="geometry" />
        </mxCell>
        <mxCell id="F_s4WLiXZLSX8BtZLZNL-7" style="edgeStyle=orthogonalEdgeStyle;rounded=0;sketch=1;hachureGap=4;jiggle=2;curveFitting=1;orthogonalLoop=1;jettySize=auto;html=1;entryX=0.413;entryY=-0.037;entryDx=0;entryDy=0;entryPerimeter=0;fontFamily=Architects Daughter;fontSource=https%3A%2F%2Ffonts.googleapis.com%2Fcss%3Ffamily%3DArchitects%2BDaughter;" edge="1" parent="1" source="F_s4WLiXZLSX8BtZLZNL-5" target="F_s4WLiXZLSX8BtZLZNL-1">
          <mxGeometry relative="1" as="geometry" />
        </mxCell>
        <mxCell id="F_s4WLiXZLSX8BtZLZNL-8" value="&lt;font style=&quot;font-size: 15px;&quot; face=&quot;Times New Roman&quot;&gt;gives Npi id&lt;/font&gt;&lt;div style=&quot;font-size: 15px;&quot;&gt;&lt;font style=&quot;font-size: 15px;&quot; face=&quot;NsjG6YYxxE13haLsPS4_&quot;&gt;for each campaign&lt;/font&gt;&lt;/div&gt;" style="edgeLabel;html=1;align=center;verticalAlign=middle;resizable=0;points=[];sketch=1;hachureGap=4;jiggle=2;curveFitting=1;fontFamily=Architects Daughter;fontSource=https%3A%2F%2Ffonts.googleapis.com%2Fcss%3Ffamily%3DArchitects%2BDaughter;" vertex="1" connectable="0" parent="F_s4WLiXZLSX8BtZLZNL-7">
          <mxGeometry x="-0.0428" y="2" relative="1" as="geometry">
            <mxPoint as="offset" />
          </mxGeometry>
        </mxCell>
        <mxCell id="F_s4WLiXZLSX8BtZLZNL-10" value="" style="shape=cylinder3;whiteSpace=wrap;html=1;boundedLbl=1;backgroundOutline=1;size=15;hachureGap=4;fontFamily=Architects Daughter;fontSource=https%3A%2F%2Ffonts.googleapis.com%2Fcss%3Ffamily%3DArchitects%2BDaughter;" vertex="1" parent="1">
          <mxGeometry x="561" y="127" width="60" height="80" as="geometry" />
        </mxCell>
        <mxCell id="F_s4WLiXZLSX8BtZLZNL-12" value="&lt;font style=&quot;font-size: 15px;&quot; face=&quot;Times New Roman&quot;&gt;us NPI Registry&lt;/font&gt;" style="rounded=0;whiteSpace=wrap;html=1;hachureGap=4;fontFamily=Architects Daughter;fontSource=https%3A%2F%2Ffonts.googleapis.com%2Fcss%3Ffamily%3DArchitects%2BDaughter;" vertex="1" parent="1">
          <mxGeometry x="537" y="-12" width="120" height="60" as="geometry" />
        </mxCell>
        <mxCell id="F_s4WLiXZLSX8BtZLZNL-13" style="edgeStyle=orthogonalEdgeStyle;rounded=0;hachureGap=4;orthogonalLoop=1;jettySize=auto;html=1;entryX=0.45;entryY=1.067;entryDx=0;entryDy=0;entryPerimeter=0;fontFamily=Architects Daughter;fontSource=https%3A%2F%2Ffonts.googleapis.com%2Fcss%3Ffamily%3DArchitects%2BDaughter;" edge="1" parent="1" source="F_s4WLiXZLSX8BtZLZNL-10" target="F_s4WLiXZLSX8BtZLZNL-12">
          <mxGeometry relative="1" as="geometry" />
        </mxCell>
        <mxCell id="F_s4WLiXZLSX8BtZLZNL-14" value="&lt;font style=&quot;font-size: 15px;&quot; face=&quot;Times New Roman&quot;&gt;Pull Npi related datas&lt;/font&gt;" style="edgeLabel;html=1;align=center;verticalAlign=middle;resizable=0;points=[];sketch=1;hachureGap=4;jiggle=2;curveFitting=1;fontFamily=Architects Daughter;fontSource=https%3A%2F%2Ffonts.googleapis.com%2Fcss%3Ffamily%3DArchitects%2BDaughter;" vertex="1" connectable="0" parent="F_s4WLiXZLSX8BtZLZNL-13">
          <mxGeometry x="0.0403" y="-1" relative="1" as="geometry">
            <mxPoint as="offset" />
          </mxGeometry>
        </mxCell>
        <mxCell id="F_s4WLiXZLSX8BtZLZNL-20" style="edgeStyle=orthogonalEdgeStyle;rounded=0;hachureGap=4;orthogonalLoop=1;jettySize=auto;html=1;fontFamily=Architects Daughter;fontSource=https%3A%2F%2Ffonts.googleapis.com%2Fcss%3Ffamily%3DArchitects%2BDaughter;" edge="1" parent="1" source="F_s4WLiXZLSX8BtZLZNL-16" target="F_s4WLiXZLSX8BtZLZNL-21">
          <mxGeometry relative="1" as="geometry">
            <mxPoint x="440" y="346" as="targetPoint" />
          </mxGeometry>
        </mxCell>
        <mxCell id="F_s4WLiXZLSX8BtZLZNL-16" value="&lt;font style=&quot;font-size: 16px;&quot; face=&quot;Times New Roman&quot;&gt;liveramp&lt;/font&gt;" style="rounded=0;whiteSpace=wrap;html=1;hachureGap=4;fontFamily=Architects Daughter;fontSource=https%3A%2F%2Ffonts.googleapis.com%2Fcss%3Ffamily%3DArchitects%2BDaughter;" vertex="1" parent="1">
          <mxGeometry x="252" y="316" width="120" height="60" as="geometry" />
        </mxCell>
        <mxCell id="F_s4WLiXZLSX8BtZLZNL-19" value="&lt;font style=&quot;font-size: 22px;&quot; face=&quot;Times New Roman&quot;&gt;Step 1&lt;/font&gt;&lt;div style=&quot;font-size: 22px;&quot;&gt;&lt;font style=&quot;font-size: 22px;&quot; face=&quot;Times New Roman&quot;&gt;Genearation Of Batch Report&lt;/font&gt;&lt;/div&gt;" style="text;html=1;align=left;verticalAlign=middle;resizable=0;points=[];autosize=1;strokeColor=none;fillColor=none;fontFamily=Architects Daughter;fontSource=https%3A%2F%2Ffonts.googleapis.com%2Fcss%3Ffamily%3DArchitects%2BDaughter;" vertex="1" parent="1">
          <mxGeometry x="235" y="-116" width="276" height="66" as="geometry" />
        </mxCell>
        <mxCell id="F_s4WLiXZLSX8BtZLZNL-23" style="edgeStyle=orthogonalEdgeStyle;rounded=0;hachureGap=4;orthogonalLoop=1;jettySize=auto;html=1;fontFamily=Architects Daughter;fontSource=https%3A%2F%2Ffonts.googleapis.com%2Fcss%3Ffamily%3DArchitects%2BDaughter;" edge="1" parent="1" source="F_s4WLiXZLSX8BtZLZNL-21" target="F_s4WLiXZLSX8BtZLZNL-24">
          <mxGeometry relative="1" as="geometry">
            <mxPoint x="753" y="346" as="targetPoint" />
          </mxGeometry>
        </mxCell>
        <mxCell id="F_s4WLiXZLSX8BtZLZNL-21" value="&lt;font style=&quot;font-size: 16px;&quot; face=&quot;Times New Roman&quot;&gt;returns rampi_iid,name,phone,email,zip&lt;/font&gt;" style="rounded=0;whiteSpace=wrap;html=1;hachureGap=4;fontFamily=Architects Daughter;fontSource=https%3A%2F%2Ffonts.googleapis.com%2Fcss%3Ffamily%3DArchitects%2BDaughter;" vertex="1" parent="1">
          <mxGeometry x="448" y="316" width="221" height="60" as="geometry" />
        </mxCell>
        <mxCell id="F_s4WLiXZLSX8BtZLZNL-22" value="&lt;font style=&quot;font-size: 19px;&quot; face=&quot;Times New Roman&quot;&gt;Step 2&amp;nbsp;&lt;/font&gt;&lt;div style=&quot;font-size: 19px;&quot;&gt;&lt;font style=&quot;font-size: 19px;&quot; face=&quot;_hTbXCwlwcO6a5PfpKq1&quot;&gt;Run beeswax campaign to target npi&lt;/font&gt;&lt;/div&gt;" style="text;html=1;align=left;verticalAlign=middle;resizable=0;points=[];autosize=1;strokeColor=none;fillColor=none;fontFamily=Architects Daughter;fontSource=https%3A%2F%2Ffonts.googleapis.com%2Fcss%3Ffamily%3DArchitects%2BDaughter;" vertex="1" parent="1">
          <mxGeometry x="247" y="493" width="295" height="59" as="geometry" />
        </mxCell>
        <mxCell id="F_s4WLiXZLSX8BtZLZNL-44" style="edgeStyle=orthogonalEdgeStyle;rounded=0;hachureGap=4;orthogonalLoop=1;jettySize=auto;html=1;entryX=0;entryY=0.5;entryDx=0;entryDy=0;fontFamily=Architects Daughter;fontSource=https%3A%2F%2Ffonts.googleapis.com%2Fcss%3Ffamily%3DArchitects%2BDaughter;" edge="1" parent="1" source="F_s4WLiXZLSX8BtZLZNL-24" target="F_s4WLiXZLSX8BtZLZNL-41">
          <mxGeometry relative="1" as="geometry">
            <Array as="points">
              <mxPoint x="750" y="571" />
            </Array>
          </mxGeometry>
        </mxCell>
        <mxCell id="F_s4WLiXZLSX8BtZLZNL-24" value="&lt;font style=&quot;font-size: 16px;&quot; face=&quot;Times New Roman&quot;&gt;Store To S3&lt;/font&gt;" style="whiteSpace=wrap;html=1;aspect=fixed;hachureGap=4;fontFamily=Architects Daughter;fontSource=https%3A%2F%2Ffonts.googleapis.com%2Fcss%3Ffamily%3DArchitects%2BDaughter;" vertex="1" parent="1">
          <mxGeometry x="713" y="306" width="80" height="80" as="geometry" />
        </mxCell>
        <mxCell id="F_s4WLiXZLSX8BtZLZNL-27" style="edgeStyle=orthogonalEdgeStyle;rounded=0;hachureGap=4;orthogonalLoop=1;jettySize=auto;html=1;entryX=0.5;entryY=0;entryDx=0;entryDy=0;fontFamily=Architects Daughter;fontSource=https%3A%2F%2Ffonts.googleapis.com%2Fcss%3Ffamily%3DArchitects%2BDaughter;" edge="1" parent="1" source="F_s4WLiXZLSX8BtZLZNL-25" target="F_s4WLiXZLSX8BtZLZNL-26">
          <mxGeometry relative="1" as="geometry" />
        </mxCell>
        <mxCell id="F_s4WLiXZLSX8BtZLZNL-25" value="&lt;font style=&quot;font-size: 17px;&quot; face=&quot;Times New Roman&quot;&gt;Client initiates&amp;nbsp;&lt;/font&gt;&lt;div style=&quot;font-size: 17px;&quot;&gt;&lt;font style=&quot;font-size: 17px;&quot; face=&quot;C1Y0J9ztE5tHA2T-BS1u&quot;&gt;beeswax campaign&amp;nbsp;&lt;/font&gt;&lt;/div&gt;" style="rounded=0;whiteSpace=wrap;html=1;hachureGap=4;fontFamily=Architects Daughter;fontSource=https%3A%2F%2Ffonts.googleapis.com%2Fcss%3Ffamily%3DArchitects%2BDaughter;" vertex="1" parent="1">
          <mxGeometry x="245" y="577" width="141" height="60" as="geometry" />
        </mxCell>
        <mxCell id="F_s4WLiXZLSX8BtZLZNL-29" style="edgeStyle=orthogonalEdgeStyle;rounded=0;hachureGap=4;orthogonalLoop=1;jettySize=auto;html=1;fontFamily=Architects Daughter;fontSource=https%3A%2F%2Ffonts.googleapis.com%2Fcss%3Ffamily%3DArchitects%2BDaughter;" edge="1" parent="1" source="F_s4WLiXZLSX8BtZLZNL-26" target="F_s4WLiXZLSX8BtZLZNL-30">
          <mxGeometry relative="1" as="geometry">
            <mxPoint x="315.5" y="803" as="targetPoint" />
          </mxGeometry>
        </mxCell>
        <mxCell id="F_s4WLiXZLSX8BtZLZNL-26" value="&lt;font style=&quot;font-size: 16px;&quot; face=&quot;Times New Roman&quot;&gt;beeswax returns&amp;nbsp;&lt;/font&gt;&lt;div style=&quot;font-size: 16px;&quot;&gt;&lt;font style=&quot;font-size: 16px;&quot; face=&quot;mqQ9MBocoyHOOHxmQ7Do&quot;&gt;win Logs&lt;/font&gt;&lt;/div&gt;" style="rounded=0;whiteSpace=wrap;html=1;hachureGap=4;fontFamily=Architects Daughter;fontSource=https%3A%2F%2Ffonts.googleapis.com%2Fcss%3Ffamily%3DArchitects%2BDaughter;" vertex="1" parent="1">
          <mxGeometry x="255.5" y="686" width="120" height="60" as="geometry" />
        </mxCell>
        <mxCell id="F_s4WLiXZLSX8BtZLZNL-40" style="edgeStyle=orthogonalEdgeStyle;rounded=0;sketch=1;hachureGap=4;jiggle=2;curveFitting=1;orthogonalLoop=1;jettySize=auto;html=1;entryX=0;entryY=0.5;entryDx=0;entryDy=0;fontFamily=Architects Daughter;fontSource=https%3A%2F%2Ffonts.googleapis.com%2Fcss%3Ffamily%3DArchitects%2BDaughter;" edge="1" parent="1" source="F_s4WLiXZLSX8BtZLZNL-30" target="F_s4WLiXZLSX8BtZLZNL-33">
          <mxGeometry relative="1" as="geometry" />
        </mxCell>
        <mxCell id="F_s4WLiXZLSX8BtZLZNL-30" value="&lt;font style=&quot;font-size: 16px;&quot; face=&quot;Times New Roman&quot;&gt;from win logs&amp;nbsp;&lt;/font&gt;&lt;div style=&quot;font-size: 16px;&quot;&gt;&lt;font style=&quot;font-size: 16px;&quot; face=&quot;x16iAG2BPqhtc5AMe38g&quot;&gt;we separate cookie and maid file&lt;/font&gt;&lt;/div&gt;" style="rounded=0;whiteSpace=wrap;html=1;hachureGap=4;fontFamily=Architects Daughter;fontSource=https%3A%2F%2Ffonts.googleapis.com%2Fcss%3Ffamily%3DArchitects%2BDaughter;" vertex="1" parent="1">
          <mxGeometry x="252" y="775" width="129.5" height="60" as="geometry" />
        </mxCell>
        <mxCell id="F_s4WLiXZLSX8BtZLZNL-42" style="edgeStyle=orthogonalEdgeStyle;rounded=0;hachureGap=4;orthogonalLoop=1;jettySize=auto;html=1;fontFamily=Architects Daughter;fontSource=https%3A%2F%2Ffonts.googleapis.com%2Fcss%3Ffamily%3DArchitects%2BDaughter;" edge="1" parent="1" source="F_s4WLiXZLSX8BtZLZNL-33" target="F_s4WLiXZLSX8BtZLZNL-41">
          <mxGeometry relative="1" as="geometry">
            <Array as="points">
              <mxPoint x="749" y="571" />
            </Array>
          </mxGeometry>
        </mxCell>
        <mxCell id="F_s4WLiXZLSX8BtZLZNL-33" value="&lt;font style=&quot;font-size: 19px;&quot; face=&quot;Times New Roman&quot;&gt;liveramp&lt;/font&gt;" style="whiteSpace=wrap;html=1;fontFamily=Architects Daughter;align=left;rounded=0;hachureGap=4;fontSource=https%3A%2F%2Ffonts.googleapis.com%2Fcss%3Ffamily%3DArchitects%2BDaughter;" vertex="1" parent="1">
          <mxGeometry x="688" y="780" width="83.5" height="50" as="geometry" />
        </mxCell>
        <mxCell id="F_s4WLiXZLSX8BtZLZNL-39" value="&lt;font face=&quot;Times New Roman&quot; style=&quot;scrollbar-color: rgb(197, 191, 182) rgb(252, 250, 245); forced-color-adjust: none; color: rgb(29, 31, 32); font-style: normal; font-variant-ligatures: normal; font-variant-caps: normal; font-weight: 400; letter-spacing: normal; orphans: 2; text-align: left; text-indent: 0px; text-transform: none; widows: 2; word-spacing: 0px; -webkit-text-stroke-width: 0px; white-space: normal; background-color: rgb(255, 255, 255); text-decoration-thickness: initial; text-decoration-style: initial; text-decoration-color: initial; font-size: 17px;&quot;&gt;we send this data back to liveramp&lt;/font&gt;&lt;div style=&quot;scrollbar-color: rgb(197, 191, 182) rgb(252, 250, 245); forced-color-adjust: none; color: rgb(29, 31, 32); font-family: &amp;quot;Architects Daughter&amp;quot;; font-style: normal; font-variant-ligatures: normal; font-variant-caps: normal; font-weight: 400; letter-spacing: normal; orphans: 2; text-align: left; text-indent: 0px; text-transform: none; widows: 2; word-spacing: 0px; -webkit-text-stroke-width: 0px; white-space: normal; background-color: rgb(255, 255, 255); text-decoration-thickness: initial; text-decoration-style: initial; text-decoration-color: initial; font-size: 17px;&quot;&gt;&lt;font face=&quot;OFI7FUD9-QZAgwCqDcl3&quot; style=&quot;scrollbar-color: rgb(197, 191, 182) rgb(252, 250, 245); forced-color-adjust: none; font-size: 17px;&quot;&gt;to convert beeswaz user id to ramp id&lt;/font&gt;&lt;/div&gt;" style="text;whiteSpace=wrap;html=1;fontFamily=Architects Daughter;fontSource=https%3A%2F%2Ffonts.googleapis.com%2Fcss%3Ffamily%3DArchitects%2BDaughter;" vertex="1" parent="1">
          <mxGeometry x="406" y="772" width="282" height="63" as="geometry" />
        </mxCell>
        <mxCell id="F_s4WLiXZLSX8BtZLZNL-41" value="&lt;font style=&quot;font-size: 17px;&quot; face=&quot;Times New Roman&quot;&gt;compare both&amp;nbsp;&lt;/font&gt;&lt;div style=&quot;font-size: 17px;&quot;&gt;&lt;font style=&quot;font-size: 17px;&quot; face=&quot;emZrD-OE_VYE669JxnP9&quot;&gt;ramp id&amp;nbsp;&lt;/font&gt;&lt;/div&gt;&lt;div style=&quot;font-size: 17px;&quot;&gt;&lt;font style=&quot;font-size: 17px;&quot; face=&quot;emZrD-OE_VYE669JxnP9&quot;&gt;to callculate match rate&lt;/font&gt;&lt;/div&gt;" style="rounded=0;whiteSpace=wrap;html=1;hachureGap=4;fontFamily=Architects Daughter;fontSource=https%3A%2F%2Ffonts.googleapis.com%2Fcss%3Ffamily%3DArchitects%2BDaughter;" vertex="1" parent="1">
          <mxGeometry x="805" y="546" width="173" height="60" as="geometry" />
        </mxCell>
        <mxCell id="F_s4WLiXZLSX8BtZLZNL-46" value="&lt;font style=&quot;font-size: 16px;&quot; face=&quot;Times New Roman&quot;&gt;store&amp;nbsp;&lt;/font&gt;&lt;div style=&quot;font-size: 16px;&quot;&gt;&lt;font style=&quot;font-size: 16px;&quot; face=&quot;RcULQQq9SgQKDbHxtWnh&quot;&gt;bw_cookie_maid&lt;/font&gt;&lt;/div&gt;&lt;div style=&quot;font-size: 16px;&quot;&gt;&lt;font style=&quot;font-size: 16px;&quot; face=&quot;RcULQQq9SgQKDbHxtWnh&quot;&gt;in s3&lt;/font&gt;&lt;/div&gt;" style="rounded=0;whiteSpace=wrap;html=1;hachureGap=4;fontFamily=Architects Daughter;fontSource=https%3A%2F%2Ffonts.googleapis.com%2Fcss%3Ffamily%3DArchitects%2BDaughter;" vertex="1" parent="1">
          <mxGeometry x="697" y="671" width="120" height="60" as="geometry" />
        </mxCell>
      </root>
    </mxGraphModel>
  </diagram>
</mxfile>
